<mxfile host="Electron" modified="2024-04-02T13:56:48.396Z" agent="Mozilla/5.0 (X11; Linux x86_64) AppleWebKit/537.36 (KHTML, like Gecko) draw.io/22.0.0 Chrome/114.0.5735.289 Electron/25.8.3 Safari/537.36" etag="kXkrHVQ_XfwePuR86cRM" version="22.0.0" type="device" pages="2">
  <diagram name="Page-1" id="IRGs_MX0p5Y1vbBzopJs">
    <mxGraphModel dx="988" dy="588" grid="1" gridSize="10" guides="1" tooltips="1" connect="1" arrows="1" fold="1" page="1" pageScale="1" pageWidth="850" pageHeight="1100" math="0" shadow="0">
      <root>
        <mxCell id="0" />
        <mxCell id="1" parent="0" />
        <mxCell id="PP2doB-VRWp2qnVC_awZ-5" style="edgeStyle=orthogonalEdgeStyle;rounded=0;orthogonalLoop=1;jettySize=auto;html=1;" edge="1" parent="1" source="PP2doB-VRWp2qnVC_awZ-1" target="PP2doB-VRWp2qnVC_awZ-2">
          <mxGeometry relative="1" as="geometry" />
        </mxCell>
        <mxCell id="PP2doB-VRWp2qnVC_awZ-1" value="Get file content line by line" style="rounded=0;whiteSpace=wrap;html=1;" vertex="1" parent="1">
          <mxGeometry x="160" y="200" width="120" height="60" as="geometry" />
        </mxCell>
        <mxCell id="PP2doB-VRWp2qnVC_awZ-4" style="edgeStyle=orthogonalEdgeStyle;rounded=0;orthogonalLoop=1;jettySize=auto;html=1;" edge="1" parent="1" source="PP2doB-VRWp2qnVC_awZ-2">
          <mxGeometry relative="1" as="geometry">
            <mxPoint x="220" y="440" as="targetPoint" />
          </mxGeometry>
        </mxCell>
        <mxCell id="PP2doB-VRWp2qnVC_awZ-2" value="Iterate every file line" style="rounded=0;whiteSpace=wrap;html=1;" vertex="1" parent="1">
          <mxGeometry x="160" y="320" width="120" height="60" as="geometry" />
        </mxCell>
        <mxCell id="PP2doB-VRWp2qnVC_awZ-23" value="Iterate every file line" style="rounded=0;whiteSpace=wrap;html=1;" vertex="1" parent="1">
          <mxGeometry x="160" y="440" width="120" height="60" as="geometry" />
        </mxCell>
      </root>
    </mxGraphModel>
  </diagram>
  <diagram id="OnuY1lpOCETevqLDEIEx" name="Page-2">
    <mxGraphModel dx="1430" dy="852" grid="1" gridSize="10" guides="1" tooltips="1" connect="1" arrows="1" fold="1" page="1" pageScale="1" pageWidth="850" pageHeight="1100" math="0" shadow="0">
      <root>
        <mxCell id="0" />
        <mxCell id="1" parent="0" />
        <mxCell id="c2TfJDe6C46qXwxF6_SY-21" value="Header Files with Header Includes" style="swimlane;whiteSpace=wrap;html=1;" vertex="1" parent="1">
          <mxGeometry x="40" y="440" width="1080" height="320" as="geometry" />
        </mxCell>
        <mxCell id="c2TfJDe6C46qXwxF6_SY-1" value="Header 1" style="rounded=0;whiteSpace=wrap;html=1;" vertex="1" parent="c2TfJDe6C46qXwxF6_SY-21">
          <mxGeometry x="120" y="80" width="120" height="60" as="geometry" />
        </mxCell>
        <mxCell id="c2TfJDe6C46qXwxF6_SY-3" value="Header 2" style="rounded=0;whiteSpace=wrap;html=1;" vertex="1" parent="c2TfJDe6C46qXwxF6_SY-21">
          <mxGeometry x="280" y="80" width="120" height="60" as="geometry" />
        </mxCell>
        <mxCell id="c2TfJDe6C46qXwxF6_SY-4" value="Header 3" style="rounded=0;whiteSpace=wrap;html=1;" vertex="1" parent="c2TfJDe6C46qXwxF6_SY-21">
          <mxGeometry x="520" y="80" width="120" height="60" as="geometry" />
        </mxCell>
        <mxCell id="c2TfJDe6C46qXwxF6_SY-5" value="Header 1" style="rounded=0;whiteSpace=wrap;html=1;" vertex="1" parent="c2TfJDe6C46qXwxF6_SY-21">
          <mxGeometry x="280" y="200" width="120" height="60" as="geometry" />
        </mxCell>
        <mxCell id="c2TfJDe6C46qXwxF6_SY-16" style="edgeStyle=orthogonalEdgeStyle;rounded=0;orthogonalLoop=1;jettySize=auto;html=1;" edge="1" parent="c2TfJDe6C46qXwxF6_SY-21" source="c2TfJDe6C46qXwxF6_SY-3" target="c2TfJDe6C46qXwxF6_SY-5">
          <mxGeometry relative="1" as="geometry" />
        </mxCell>
        <mxCell id="c2TfJDe6C46qXwxF6_SY-6" value="Header 4" style="rounded=0;whiteSpace=wrap;html=1;" vertex="1" parent="c2TfJDe6C46qXwxF6_SY-21">
          <mxGeometry x="840" y="80" width="120" height="60" as="geometry" />
        </mxCell>
        <mxCell id="c2TfJDe6C46qXwxF6_SY-7" value="Header 2" style="rounded=0;whiteSpace=wrap;html=1;" vertex="1" parent="c2TfJDe6C46qXwxF6_SY-21">
          <mxGeometry x="440" y="200" width="120" height="60" as="geometry" />
        </mxCell>
        <mxCell id="c2TfJDe6C46qXwxF6_SY-15" style="edgeStyle=orthogonalEdgeStyle;rounded=0;orthogonalLoop=1;jettySize=auto;html=1;" edge="1" parent="c2TfJDe6C46qXwxF6_SY-21" source="c2TfJDe6C46qXwxF6_SY-4" target="c2TfJDe6C46qXwxF6_SY-7">
          <mxGeometry relative="1" as="geometry" />
        </mxCell>
        <mxCell id="c2TfJDe6C46qXwxF6_SY-8" value="Header 1" style="rounded=0;whiteSpace=wrap;html=1;" vertex="1" parent="c2TfJDe6C46qXwxF6_SY-21">
          <mxGeometry x="600" y="200" width="120" height="60" as="geometry" />
        </mxCell>
        <mxCell id="c2TfJDe6C46qXwxF6_SY-14" style="edgeStyle=orthogonalEdgeStyle;rounded=0;orthogonalLoop=1;jettySize=auto;html=1;" edge="1" parent="c2TfJDe6C46qXwxF6_SY-21" source="c2TfJDe6C46qXwxF6_SY-4" target="c2TfJDe6C46qXwxF6_SY-8">
          <mxGeometry relative="1" as="geometry" />
        </mxCell>
        <mxCell id="c2TfJDe6C46qXwxF6_SY-9" value="Header 3" style="rounded=0;whiteSpace=wrap;html=1;" vertex="1" parent="c2TfJDe6C46qXwxF6_SY-21">
          <mxGeometry x="760" y="200" width="120" height="60" as="geometry" />
        </mxCell>
        <mxCell id="c2TfJDe6C46qXwxF6_SY-12" style="edgeStyle=orthogonalEdgeStyle;rounded=0;orthogonalLoop=1;jettySize=auto;html=1;" edge="1" parent="c2TfJDe6C46qXwxF6_SY-21" source="c2TfJDe6C46qXwxF6_SY-6" target="c2TfJDe6C46qXwxF6_SY-9">
          <mxGeometry relative="1" as="geometry" />
        </mxCell>
        <mxCell id="c2TfJDe6C46qXwxF6_SY-10" value="Header 2" style="rounded=0;whiteSpace=wrap;html=1;" vertex="1" parent="c2TfJDe6C46qXwxF6_SY-21">
          <mxGeometry x="920" y="200" width="120" height="60" as="geometry" />
        </mxCell>
        <mxCell id="c2TfJDe6C46qXwxF6_SY-13" style="edgeStyle=orthogonalEdgeStyle;rounded=0;orthogonalLoop=1;jettySize=auto;html=1;" edge="1" parent="c2TfJDe6C46qXwxF6_SY-21" source="c2TfJDe6C46qXwxF6_SY-6" target="c2TfJDe6C46qXwxF6_SY-10">
          <mxGeometry relative="1" as="geometry" />
        </mxCell>
        <mxCell id="c2TfJDe6C46qXwxF6_SY-25" value="&amp;lt;&amp;lt;inlcude&amp;gt;&amp;gt;" style="text;html=1;align=center;verticalAlign=middle;resizable=0;points=[];autosize=1;strokeColor=none;fillColor=none;" vertex="1" parent="c2TfJDe6C46qXwxF6_SY-21">
          <mxGeometry y="150" width="90" height="30" as="geometry" />
        </mxCell>
        <mxCell id="c2TfJDe6C46qXwxF6_SY-26" value="" style="endArrow=none;dashed=1;html=1;dashPattern=1 3;strokeWidth=2;rounded=0;" edge="1" parent="c2TfJDe6C46qXwxF6_SY-21">
          <mxGeometry width="50" height="50" relative="1" as="geometry">
            <mxPoint x="1070" y="170" as="sourcePoint" />
            <mxPoint x="90" y="169.99739130434796" as="targetPoint" />
          </mxGeometry>
        </mxCell>
        <mxCell id="c2TfJDe6C46qXwxF6_SY-22" value="Source Files with Header Includes" style="swimlane;whiteSpace=wrap;html=1;" vertex="1" parent="1">
          <mxGeometry x="40" y="40" width="400" height="320" as="geometry" />
        </mxCell>
        <mxCell id="c2TfJDe6C46qXwxF6_SY-2" value="Source File" style="ellipse;whiteSpace=wrap;html=1;" vertex="1" parent="c2TfJDe6C46qXwxF6_SY-22">
          <mxGeometry x="40" y="120" width="120" height="80" as="geometry" />
        </mxCell>
        <mxCell id="c2TfJDe6C46qXwxF6_SY-19" style="edgeStyle=orthogonalEdgeStyle;rounded=0;orthogonalLoop=1;jettySize=auto;html=1;" edge="1" parent="c2TfJDe6C46qXwxF6_SY-22" source="c2TfJDe6C46qXwxF6_SY-17" target="c2TfJDe6C46qXwxF6_SY-2">
          <mxGeometry relative="1" as="geometry" />
        </mxCell>
        <mxCell id="c2TfJDe6C46qXwxF6_SY-17" value="Header 2" style="rounded=0;whiteSpace=wrap;html=1;" vertex="1" parent="c2TfJDe6C46qXwxF6_SY-22">
          <mxGeometry x="240" y="80" width="120" height="60" as="geometry" />
        </mxCell>
        <mxCell id="c2TfJDe6C46qXwxF6_SY-20" style="edgeStyle=orthogonalEdgeStyle;rounded=0;orthogonalLoop=1;jettySize=auto;html=1;" edge="1" parent="c2TfJDe6C46qXwxF6_SY-22" source="c2TfJDe6C46qXwxF6_SY-18" target="c2TfJDe6C46qXwxF6_SY-2">
          <mxGeometry relative="1" as="geometry" />
        </mxCell>
        <mxCell id="c2TfJDe6C46qXwxF6_SY-18" value="Header 4" style="rounded=0;whiteSpace=wrap;html=1;" vertex="1" parent="c2TfJDe6C46qXwxF6_SY-22">
          <mxGeometry x="240" y="200" width="120" height="60" as="geometry" />
        </mxCell>
        <mxCell id="c2TfJDe6C46qXwxF6_SY-23" value="&amp;lt;&amp;lt;inlcude&amp;gt;&amp;gt;" style="text;html=1;align=center;verticalAlign=middle;resizable=0;points=[];autosize=1;strokeColor=none;fillColor=none;" vertex="1" parent="c2TfJDe6C46qXwxF6_SY-22">
          <mxGeometry x="155" y="40" width="90" height="30" as="geometry" />
        </mxCell>
        <mxCell id="c2TfJDe6C46qXwxF6_SY-24" value="" style="endArrow=none;dashed=1;html=1;dashPattern=1 3;strokeWidth=2;rounded=0;" edge="1" parent="1" target="c2TfJDe6C46qXwxF6_SY-23">
          <mxGeometry width="50" height="50" relative="1" as="geometry">
            <mxPoint x="240" y="340" as="sourcePoint" />
            <mxPoint x="540" y="390" as="targetPoint" />
          </mxGeometry>
        </mxCell>
        <mxCell id="c2TfJDe6C46qXwxF6_SY-29" value="Header 2: Includes Recursive" style="swimlane;horizontal=0;whiteSpace=wrap;html=1;" vertex="1" parent="1">
          <mxGeometry x="40" y="840" width="440" height="280" as="geometry" />
        </mxCell>
        <mxCell id="c2TfJDe6C46qXwxF6_SY-32" style="edgeStyle=orthogonalEdgeStyle;rounded=0;orthogonalLoop=1;jettySize=auto;html=1;" edge="1" parent="c2TfJDe6C46qXwxF6_SY-29" target="c2TfJDe6C46qXwxF6_SY-31">
          <mxGeometry relative="1" as="geometry">
            <mxPoint x="120" y="70" as="sourcePoint" />
            <mxPoint x="160" y="190" as="targetPoint" />
            <Array as="points">
              <mxPoint x="80" y="70" />
              <mxPoint x="80" y="190" />
            </Array>
          </mxGeometry>
        </mxCell>
        <mxCell id="c2TfJDe6C46qXwxF6_SY-28" value="Header 2" style="rounded=0;whiteSpace=wrap;html=1;" vertex="1" parent="c2TfJDe6C46qXwxF6_SY-29">
          <mxGeometry x="40" y="40" width="120" height="60" as="geometry" />
        </mxCell>
        <mxCell id="c2TfJDe6C46qXwxF6_SY-31" value="Header 1" style="rounded=0;whiteSpace=wrap;html=1;" vertex="1" parent="c2TfJDe6C46qXwxF6_SY-29">
          <mxGeometry x="120" y="160" width="120" height="60" as="geometry" />
        </mxCell>
        <mxCell id="c2TfJDe6C46qXwxF6_SY-36" value="Header 4: &lt;br&gt;Includes Recursive" style="swimlane;horizontal=0;whiteSpace=wrap;html=1;" vertex="1" parent="1">
          <mxGeometry x="40" y="1200" width="440" height="640" as="geometry" />
        </mxCell>
        <mxCell id="c2TfJDe6C46qXwxF6_SY-37" style="edgeStyle=orthogonalEdgeStyle;rounded=0;orthogonalLoop=1;jettySize=auto;html=1;" edge="1" parent="c2TfJDe6C46qXwxF6_SY-36" target="c2TfJDe6C46qXwxF6_SY-39">
          <mxGeometry relative="1" as="geometry">
            <mxPoint x="120" y="70" as="sourcePoint" />
            <mxPoint x="160" y="190" as="targetPoint" />
            <Array as="points">
              <mxPoint x="80" y="70" />
              <mxPoint x="80" y="190" />
            </Array>
          </mxGeometry>
        </mxCell>
        <mxCell id="c2TfJDe6C46qXwxF6_SY-38" value="Header 4" style="rounded=0;whiteSpace=wrap;html=1;" vertex="1" parent="c2TfJDe6C46qXwxF6_SY-36">
          <mxGeometry x="40" y="40" width="120" height="60" as="geometry" />
        </mxCell>
        <mxCell id="c2TfJDe6C46qXwxF6_SY-41" style="edgeStyle=orthogonalEdgeStyle;rounded=0;orthogonalLoop=1;jettySize=auto;html=1;" edge="1" parent="c2TfJDe6C46qXwxF6_SY-36" target="c2TfJDe6C46qXwxF6_SY-40">
          <mxGeometry relative="1" as="geometry">
            <mxPoint x="160" y="220" as="sourcePoint" />
            <mxPoint x="180" y="310.00000000000045" as="targetPoint" />
            <Array as="points">
              <mxPoint x="160" y="310" />
            </Array>
          </mxGeometry>
        </mxCell>
        <mxCell id="c2TfJDe6C46qXwxF6_SY-45" style="edgeStyle=orthogonalEdgeStyle;rounded=0;orthogonalLoop=1;jettySize=auto;html=1;" edge="1" parent="c2TfJDe6C46qXwxF6_SY-36" source="c2TfJDe6C46qXwxF6_SY-39" target="c2TfJDe6C46qXwxF6_SY-44">
          <mxGeometry relative="1" as="geometry">
            <Array as="points">
              <mxPoint x="160" y="550" />
            </Array>
          </mxGeometry>
        </mxCell>
        <mxCell id="c2TfJDe6C46qXwxF6_SY-39" value="Header 3" style="rounded=0;whiteSpace=wrap;html=1;" vertex="1" parent="c2TfJDe6C46qXwxF6_SY-36">
          <mxGeometry x="120" y="160" width="120" height="60" as="geometry" />
        </mxCell>
        <mxCell id="c2TfJDe6C46qXwxF6_SY-43" style="edgeStyle=orthogonalEdgeStyle;rounded=0;orthogonalLoop=1;jettySize=auto;html=1;" edge="1" parent="c2TfJDe6C46qXwxF6_SY-36" source="c2TfJDe6C46qXwxF6_SY-40" target="c2TfJDe6C46qXwxF6_SY-42">
          <mxGeometry relative="1" as="geometry">
            <Array as="points">
              <mxPoint x="240" y="430" />
            </Array>
          </mxGeometry>
        </mxCell>
        <mxCell id="c2TfJDe6C46qXwxF6_SY-40" value="Header 2" style="rounded=0;whiteSpace=wrap;html=1;" vertex="1" parent="c2TfJDe6C46qXwxF6_SY-36">
          <mxGeometry x="200" y="280" width="120" height="60" as="geometry" />
        </mxCell>
        <mxCell id="c2TfJDe6C46qXwxF6_SY-42" value="Header 1" style="rounded=0;whiteSpace=wrap;html=1;" vertex="1" parent="c2TfJDe6C46qXwxF6_SY-36">
          <mxGeometry x="280" y="400" width="120" height="60" as="geometry" />
        </mxCell>
        <mxCell id="c2TfJDe6C46qXwxF6_SY-44" value="Header 1" style="rounded=0;whiteSpace=wrap;html=1;" vertex="1" parent="c2TfJDe6C46qXwxF6_SY-36">
          <mxGeometry x="200" y="520" width="120" height="60" as="geometry" />
        </mxCell>
        <mxCell id="c2TfJDe6C46qXwxF6_SY-47" value="Read and marked as read.&lt;br&gt;" style="shape=note;whiteSpace=wrap;html=1;backgroundOutline=1;darkOpacity=0.05;" vertex="1" parent="1">
          <mxGeometry x="560" y="880" width="330" height="100" as="geometry" />
        </mxCell>
        <mxCell id="c2TfJDe6C46qXwxF6_SY-59" style="edgeStyle=orthogonalEdgeStyle;rounded=0;orthogonalLoop=1;jettySize=auto;html=1;" edge="1" parent="1" source="c2TfJDe6C46qXwxF6_SY-52" target="c2TfJDe6C46qXwxF6_SY-53">
          <mxGeometry relative="1" as="geometry" />
        </mxCell>
        <mxCell id="c2TfJDe6C46qXwxF6_SY-52" value="Create Entry for the Child Header for Global Header List" style="rounded=1;whiteSpace=wrap;html=1;" vertex="1" parent="1">
          <mxGeometry x="640" y="1440" width="160" height="60" as="geometry" />
        </mxCell>
        <mxCell id="c2TfJDe6C46qXwxF6_SY-60" style="edgeStyle=orthogonalEdgeStyle;rounded=0;orthogonalLoop=1;jettySize=auto;html=1;" edge="1" parent="1" source="c2TfJDe6C46qXwxF6_SY-53" target="c2TfJDe6C46qXwxF6_SY-54">
          <mxGeometry relative="1" as="geometry" />
        </mxCell>
        <mxCell id="c2TfJDe6C46qXwxF6_SY-53" value="Add the Child Header Entry for the Parent Children List" style="rounded=1;whiteSpace=wrap;html=1;" vertex="1" parent="1">
          <mxGeometry x="640" y="1560" width="160" height="60" as="geometry" />
        </mxCell>
        <mxCell id="c2TfJDe6C46qXwxF6_SY-61" style="edgeStyle=orthogonalEdgeStyle;rounded=0;orthogonalLoop=1;jettySize=auto;html=1;" edge="1" parent="1" source="c2TfJDe6C46qXwxF6_SY-54" target="c2TfJDe6C46qXwxF6_SY-55">
          <mxGeometry relative="1" as="geometry" />
        </mxCell>
        <mxCell id="c2TfJDe6C46qXwxF6_SY-54" value="Add the Child Header Entry for the Parent Children List" style="rounded=1;whiteSpace=wrap;html=1;" vertex="1" parent="1">
          <mxGeometry x="640" y="1680" width="160" height="60" as="geometry" />
        </mxCell>
        <mxCell id="c2TfJDe6C46qXwxF6_SY-55" value="Create Entry for the Header Dependency Graph of the current Header with its Child Header" style="rounded=1;whiteSpace=wrap;html=1;" vertex="1" parent="1">
          <mxGeometry x="640" y="1800" width="160" height="60" as="geometry" />
        </mxCell>
        <mxCell id="c2TfJDe6C46qXwxF6_SY-58" style="edgeStyle=orthogonalEdgeStyle;rounded=0;orthogonalLoop=1;jettySize=auto;html=1;" edge="1" parent="1" source="c2TfJDe6C46qXwxF6_SY-57" target="c2TfJDe6C46qXwxF6_SY-52">
          <mxGeometry relative="1" as="geometry" />
        </mxCell>
        <mxCell id="c2TfJDe6C46qXwxF6_SY-57" value="Read Header File Content if Global Header File Entry does not exist" style="rounded=1;whiteSpace=wrap;html=1;" vertex="1" parent="1">
          <mxGeometry x="640" y="1320" width="160" height="60" as="geometry" />
        </mxCell>
      </root>
    </mxGraphModel>
  </diagram>
</mxfile>
